<svg id="art" xmlns="http://www.w3.org/2000/svg" viewBox="0 0 64 64"><defs><style>.cls-1{fill:#897564;}.cls-2{fill:#5df9e6;}.cls-3{fill:#b59b88;}.cls-4{fill:none;stroke:#041256;stroke-linecap:round;stroke-miterlimit:10;stroke-width:2px;}.cls-5{fill:#283d77;}.cls-6{fill:#212e5e;}.cls-7{fill:#2f4984;}.cls-8{fill:#819bc6;}.cls-9{fill:#041256;}.cls-10{fill:#ddc0ab;}</style></defs><title>game of thrones, game, thrones, series, weapon, dragon, glass, spear</title><path class="cls-1" d="M3.53,35.84H50.66a0,0,0,0,1,0,0v4.24a0,0,0,0,1,0,0H3.53A2.12,2.12,0,0,1,1.41,38v0a2.12,2.12,0,0,1,2.12-2.12Z" transform="translate(-19.22 29.53) rotate(-45)"/><path class="cls-2" d="M42,19.05l-.44.44,1.83,1.84L10,54.65a2.11,2.11,0,0,1-1.49.62l.09.11a2.12,2.12,0,0,0,3,0L45,22.05Z"/><path class="cls-3" d="M9,54.28,42.27,21l1.89,1.89.79-.79-3-3L8.62,52.38a2.12,2.12,0,0,0-.19,2.77A2.11,2.11,0,0,1,9,54.28Z"/><path class="cls-4" d="M3.53,35.84H50.66a0,0,0,0,1,0,0v4.24a0,0,0,0,1,0,0H3.53A2.12,2.12,0,0,1,1.41,38v0a2.12,2.12,0,0,1,2.12-2.12Z" transform="translate(-19.22 29.53) rotate(-45)"/><polygon class="cls-5" points="47.21 27 52.92 21.29 54.91 9.09 42.71 11.08 37 16.79 35.01 28.99 47.21 27"/><polygon class="cls-6" points="54.91 9.09 35.01 28.99 47.21 27 52.92 21.29 54.91 9.09"/><polygon class="cls-5" points="42.71 11.08 42.61 11.18 44.96 19.04 52.82 21.39 52.92 21.29 54.91 9.09 42.71 11.08"/><polygon class="cls-7" points="39.33 24.67 37.09 17.17 35.18 28.82 46.83 26.91 39.33 24.67"/><polygon class="cls-5" points="39.33 24.67 35.18 28.82 46.83 26.91 39.33 24.67"/><polygon class="cls-2" points="50.77 20.95 46.39 25.34 37.08 26.92 34.5 29.29 46.7 27.3 52.41 21.59 50.77 20.95"/><polygon class="cls-7" points="42.71 11.08 42.61 11.18 44.96 19.04 54.91 9.09 42.71 11.08"/><polygon class="cls-8" points="37.65 18.83 37.73 18.33 43.44 12.62 55.03 10.73 55.22 9.53 43.02 11.52 37.31 17.23 35.32 29.43 35.92 29.33 37.63 18.85 37.65 18.83"/><polygon class="cls-4" points="47.21 27 52.92 21.29 54.91 9.09 42.71 11.08 37 16.79 35.01 28.99 47.21 27"/><path class="cls-9" d="M42.71,11.08l-.08.11v0a63.82,63.82,0,0,1,2.81,7.73l-.34-.34a62.17,62.17,0,0,1,7.73,2.81h0l.11-.08-.09.11h0a61.87,61.87,0,0,1-8-1.89l-.26-.08-.08-.26a61.87,61.87,0,0,1-1.89-8v0h0Z"/><path class="cls-9" d="M45.31,19.39,35,29l9.6-10.3a.48.48,0,0,1,.7,0,.5.5,0,0,1,0,.71Z"/><rect class="cls-10" x="30.27" y="28.41" width="3.11" height="7.52" rx="1.24" transform="translate(-13.43 31.93) rotate(-45)"/><rect class="cls-4" x="30.27" y="28.41" width="3.11" height="7.52" rx="1.24" transform="translate(-13.43 31.93) rotate(-45)"/><rect class="cls-10" x="32.4" y="26.28" width="3.11" height="7.52" rx="1.24" transform="translate(-11.3 32.81) rotate(-45)"/><path class="cls-4" d="M31.07,29.36a1.24,1.24,0,0,1,0-1.75l.45-.45a1.24,1.24,0,0,1,1.75,0l3.57,3.57a1.24,1.24,0,0,1,0,1.75l-.45.45a1.24,1.24,0,0,1-1.75,0"/><rect class="cls-10" x="34.52" y="24.16" width="3.11" height="7.52" rx="1.24" transform="translate(-9.18 33.69) rotate(-45)"/><path class="cls-4" d="M33.2,27.24a1.24,1.24,0,0,1,0-1.76l.44-.44a1.24,1.24,0,0,1,1.76,0L39,28.6a1.24,1.24,0,0,1,0,1.76l-.44.44a1.24,1.24,0,0,1-1.76,0"/></svg>