<svg id="art" xmlns="http://www.w3.org/2000/svg" viewBox="0 0 64 64"><defs><style>.cls-1{fill:#2c6cb7;}.cls-2{fill:#041256;}.cls-3{fill:#211668;}.cls-4{fill:#5df9e6;}.cls-5{fill:#52a1d1;}.cls-6{fill:#78c4ea;}.cls-7{fill:none;stroke:#041256;stroke-linecap:round;stroke-miterlimit:10;stroke-width:2px;}.cls-8{fill:#e1fffb;}</style></defs><title>game of thrones, game, thrones, series, character, avatar, ice, dragon</title><polyline class="cls-1" points="48.25 40.51 53.61 44.13 41.54 42.73"/><path class="cls-2" d="M48.25,40.51a24.74,24.74,0,0,1,3,1.3q1.47.73,2.85,1.56l3,1.82L53.51,45c-1,0-2-.16-3-.27s-2-.27-3-.45-2-.4-3-.65a22.94,22.94,0,0,1-3-.94,23,23,0,0,1,3.08-.24c1,0,2,0,3.06,0s2,.13,3,.25,2,.24,3,.43l-.62,1.67c-.86-.65-1.7-1.34-2.51-2.06A23.28,23.28,0,0,1,48.25,40.51Z"/><line class="cls-3" x1="53.61" y1="44.13" x2="41.54" y2="42.73"/><polyline class="cls-1" points="42.07 42.57 47.43 46.19 35.35 44.78"/><path class="cls-2" d="M42.07,42.57a23.89,23.89,0,0,1,3,1.3q1.47.72,2.85,1.56l3,1.81-3.63-.15c-1,0-2-.15-3-.26s-2-.27-3-.46-2-.39-3-.65a22.94,22.94,0,0,1-3-.94,22.92,22.92,0,0,1,3.08-.23c1,0,2,0,3.06.05s2,.13,3,.24,2,.25,3,.44l-.61,1.66c-.86-.65-1.7-1.33-2.52-2A25.5,25.5,0,0,1,42.07,42.57Z"/><line class="cls-3" x1="47.43" y1="46.19" x2="35.36" y2="44.78"/><polyline class="cls-4" points="35.89 44.62 41.25 48.24 29.17 46.84"/><path class="cls-2" d="M35.89,44.62a25.43,25.43,0,0,1,3,1.3c1,.48,1.92,1,2.85,1.56l3,1.82-3.63-.15c-1,0-2-.16-3-.27s-2-.27-3-.45-2-.4-3-.65a23.45,23.45,0,0,1-2.95-.94,23.22,23.22,0,0,1,3.09-.24c1,0,2,0,3.05,0s2,.13,3,.25,2,.24,3,.43L40.74,49c-.86-.65-1.7-1.34-2.52-2.06A24.28,24.28,0,0,1,35.89,44.62Z"/><line class="cls-3" x1="41.25" y1="48.24" x2="29.17" y2="46.84"/><polyline class="cls-4" points="29.71 46.68 35.07 50.29 22.99 48.89"/><path class="cls-2" d="M29.71,46.68a23.84,23.84,0,0,1,3,1.29c1,.49,1.92,1,2.85,1.57l3,1.81L35,51.2c-1,0-2-.15-3-.26s-2-.27-3-.46-2-.39-3-.65a23.45,23.45,0,0,1-3-.94,23.19,23.19,0,0,1,3.09-.23c1,0,2,0,3.05.05s2,.13,3,.24,2,.25,3,.44l-.61,1.66c-.87-.65-1.7-1.33-2.52-2A24.29,24.29,0,0,1,29.71,46.68Z"/><line class="cls-3" x1="35.07" y1="50.29" x2="22.99" y2="48.89"/><path class="cls-5" d="M9.7,36.69l1.57-.34,5.36-6.55a76.43,76.43,0,0,0,9.86-15.55l1.72-3.62L30,20.22,31.17,19a33.14,33.14,0,0,1,10.32-7.25L44,10.63l-6.21,11,14.09-7.25L41.38,28l2.69-1.2a36.17,36.17,0,0,0,12.22-8.88l.34-.38h0a22.14,22.14,0,0,1-13.77,18l-1.59.63,5.11.23,11-.38L54,37.66A54.24,54.24,0,0,1,36.6,42.88l-1,.12,5.53,2.81L28,46.63l5.18,2.31-10.81.42c-.64,0-1.25-1.77-1.78-1.41l-1.92,1.32c-2,1.37-2.33,1.1-4.74,1.1h0a1.65,1.65,0,0,1-1.65-1.65l-2-2.1L6.62,42.85Z"/><path class="cls-1" d="M21.13,43.34A2.46,2.46,0,0,1,23.39,43,2.49,2.49,0,0,0,25,43h0a10.72,10.72,0,0,0,5.64-4.67l.41-.71-1.7,1.63-1.5.71-1.63.58-2,.08-1.42-.08-1.91.92-4.21,3.08-6.2,2.28,1.79,1.88,1.87-.3Z"/><path class="cls-4" d="M54.18,20a21.94,21.94,0,0,1-9.29,8.6l-1.53.69-5.06,1,1.16-1.44,3.08-2.42L41.38,28l2.69-1.2A35.92,35.92,0,0,0,54.18,20Z"/><path class="cls-6" d="M28.7,29.5a5,5,0,0,0,.62-4.59s-.85,2.78-2.25,3.22l.25-1.57s-2,.88-2,2c0,0-.22-2.78.68-3.93,0,0-3.31,1.87-3,5.12l-.62-1.34s-1.18,1.85-.54,2.94l-.87-.85.44,1.82-1-.36s.06,1,.56,1.29l-3.18,3.25,9-5s3.21.31,4.48-1.34a5.43,5.43,0,0,1-1.92.12l.79-1.72Z"/><path class="cls-4" d="M42.94,37.4l1.58-.63,1-.43.88,0,11-.38-2.84,1.4-6.5.23Z"/><path class="cls-4" d="M32.84,20.25l-1.18,1.22L31.2,19a33.07,33.07,0,0,1,10.29-7.23L44,10.63l-1.52,2.69A33.39,33.39,0,0,0,32.84,20.25Z"/><polygon class="cls-4" points="37.94 44.17 41.16 45.81 40.45 45.85 37.3 44.25 37.94 44.17"/><polygon class="cls-4" points="30.66 47.81 33.18 48.94 32.14 48.98 29.67 47.88 30.66 47.81"/><polygon class="cls-4" points="39.46 22.88 41.14 19.9 51.88 14.38 49.17 17.88 39.46 22.88"/><path class="cls-4" d="M9.7,36.69l1.57-.34,5.36-6.55a76.43,76.43,0,0,0,9.86-15.55l1.72-3.62L28.85,14l-.7,1.46A76,76,0,0,1,18.3,31.05L12.94,37.6l-1.58.34L8.29,44.1,12,47.87,14,50a1.75,1.75,0,0,0,.05.4h-.07a1.65,1.65,0,0,1-1.65-1.65l-2-2.1L6.62,42.85Z"/><path class="cls-7" d="M9.7,36.69l1.57-.34,5.36-6.55a76.43,76.43,0,0,0,9.86-15.55l1.72-3.62L30,20.22,31.17,19a33.14,33.14,0,0,1,10.32-7.25L44,10.63l-6.21,11,14.09-7.25L41.38,28l2.69-1.2a36.17,36.17,0,0,0,12.22-8.88l.34-.38h0a22.14,22.14,0,0,1-13.77,18l-1.59.63,5.11.23,11-.38L54,37.66A54.24,54.24,0,0,1,36.6,42.88l-1,.12,5.53,2.81L28,46.63l5.18,2.31-10.81.42c-.64,0-1.25-1.77-1.78-1.41l-1.92,1.32c-2,1.37-2.33,1.1-4.74,1.1h0a1.65,1.65,0,0,1-1.65-1.65l-2-2.1L6.62,42.85Z"/><path class="cls-2" d="M26.56,30.66l-1.28-.22a1.29,1.29,0,0,0-1.12.35l-1.85,1.79v.89H21.18a3.89,3.89,0,0,0,3.67.22l2.08-1A3.05,3.05,0,0,0,28.7,30h0l-1.31.6A1.4,1.4,0,0,1,26.56,30.66Z"/><polygon class="cls-2" points="12.09 40.08 11.34 38.99 9.9 41.69 12.09 40.08"/><circle class="cls-4" cx="24.93" cy="31.99" r="0.72"/><circle class="cls-1" cx="24.93" cy="31.99" r="0.36"/><circle class="cls-8" cx="25.18" cy="31.74" r="0.36"/><path class="cls-2" d="M10.43,45.35,11,46l-.7-.3,1.69.06.4,0a1.23,1.23,0,0,0,.27,0,1.48,1.48,0,0,0,.54-.17l2.88-1.7L19,42.12l1.45-.87A10.17,10.17,0,0,1,22,40.43a6.51,6.51,0,0,1,1.78-.38,6.91,6.91,0,0,1,.91,0,5.4,5.4,0,0,0,.8,0,5.5,5.5,0,0,0,1.56-.28c.5-.18,1-.44,1.54-.65a7,7,0,0,0,1.47-.76,4.66,4.66,0,0,0,1.14-1.16A4.8,4.8,0,0,0,32,34.05a4.94,4.94,0,0,1-.59,3.31,4.71,4.71,0,0,1-1.12,1.32,7.61,7.61,0,0,1-1.48.9c-.51.26-1,.54-1.53.78a6.39,6.39,0,0,1-1.73.45,6.68,6.68,0,0,1-.89,0,6.81,6.81,0,0,0-.78,0,5,5,0,0,0-1.49.44,8.88,8.88,0,0,0-1.37.84l-1.39,1-2.78,1.93L14,47a3.27,3.27,0,0,1-1,.43,3.72,3.72,0,0,1-.57.08l-.45,0-1.69.06H9.9l-.32-.31L9,46.74a1,1,0,0,1,0-1.42,1,1,0,0,1,1.41,0Z"/><circle class="cls-6" cx="31.68" cy="32.31" r="0.32"/><circle class="cls-6" cx="29.57" cy="34.4" r="0.57"/><circle class="cls-6" cx="30.46" cy="33.6" r="0.24"/><circle class="cls-6" cx="29.48" cy="32.98" r="0.27"/><circle class="cls-6" cx="33.08" cy="33.11" r="0.14"/><circle class="cls-6" cx="26.54" cy="34.56" r="0.19"/><circle class="cls-6" cx="26.65" cy="36.1" r="0.31"/><circle class="cls-6" cx="23.7" cy="35.83" r="0.27"/><circle class="cls-6" cx="24.97" cy="35.34" r="0.22"/><circle class="cls-6" cx="21.62" cy="36.46" r="0.36"/><circle class="cls-6" cx="31.87" cy="27.34" r="0.18"/><circle class="cls-6" cx="26.07" cy="22.91" r="0.28"/><circle class="cls-6" cx="34.16" cy="36.67" r="0.26"/><polygon class="cls-6" points="19.75 40.13 12.34 44.92 10.94 44.92 12.09 44.38 19.75 40.13"/><circle class="cls-4" cx="15.76" cy="13.5" r="1.22"/><circle class="cls-4" cx="20.01" cy="14.32" r="0.26"/><circle class="cls-4" cx="15.81" cy="18.06" r="1.69"/><circle class="cls-4" cx="11.57" cy="24.31" r="0.56"/><circle class="cls-4" cx="15.33" cy="22.22" r="0.41"/><circle class="cls-4" cx="11.77" cy="20.74" r="0.36"/><circle class="cls-4" cx="12.26" cy="28.69" r="0.44"/><circle class="cls-4" cx="14.3" cy="23.99" r="0.24"/><circle class="cls-4" cx="10.84" cy="32.19" r="0.19"/><circle class="cls-4" cx="8.55" cy="29.01" r="0.33"/><circle class="cls-4" cx="53.21" cy="51.83" r="1.53"/><circle class="cls-4" cx="43.17" cy="54.25" r="0.87"/><circle class="cls-4" cx="47.23" cy="51.53" r="0.43"/><circle class="cls-4" cx="49.04" cy="54.59" r="0.34"/><circle class="cls-4" cx="49.8" cy="49.25" r="0.76"/><circle class="cls-4" cx="55.31" cy="48.11" r="0.57"/><circle class="cls-4" cx="52.63" cy="56.38" r="0.38"/><circle class="cls-4" cx="33.73" cy="54.85" r="0.61"/><circle class="cls-4" cx="43.37" cy="51.8" r="0.7"/><circle class="cls-4" cx="28.24" cy="53.26" r="0.76"/></svg>