<svg id="art" xmlns="http://www.w3.org/2000/svg" viewBox="0 0 64 64"><defs><style>.cls-1{fill:#ea8039;}.cls-2{fill:#e2762d;}.cls-3{fill:#5df9e6;}.cls-4{fill:#f7ac4b;}.cls-5{fill:#ffd19f;}.cls-12,.cls-6{fill:none;stroke:#041256;stroke-linecap:round;stroke-width:2px;}.cls-6{stroke-miterlimit:10;}.cls-7{fill:#041256;}.cls-8{fill:#8ec6f4;}.cls-9{fill:#74b3ed;}.cls-10{fill:#b8e2ff;}.cls-11{fill:#d9f1ff;}.cls-12{stroke-linejoin:round;}</style></defs><title>game of thrones, game, thrones, series, ice, fire </title><path class="cls-1" d="M18.17,14.41,10.78,11l3.39,7.34a29.4,29.4,0,0,1,2.65,8.34,8.57,8.57,0,1,0,14.55-7.22,8.43,8.43,0,0,0-4.27-2.32A41.38,41.38,0,0,1,18.17,14.41Z"/><path class="cls-2" d="M26.61,22.84A2.81,2.81,0,0,0,24.76,22a2.66,2.66,0,0,1,.53,1.16,9.71,9.71,0,0,1-2-.62l-1.83-.84.84,1.81a7.28,7.28,0,0,1,.64,2h0A2.85,2.85,0,0,1,21.8,25a2.81,2.81,0,0,0,4.79,1.84h0l0,0A2.8,2.8,0,0,0,26.61,22.84Z"/><path class="cls-3" d="M19.64,28.73A29.59,29.59,0,0,0,17,20.39L13.61,13,21,16.45a42,42,0,0,0,8.94,2.74,8.65,8.65,0,0,1,1.68.54c-.08-.08-.15-.18-.24-.26a8.43,8.43,0,0,0-4.27-2.32,41.38,41.38,0,0,1-8.93-2.74L10.78,11l3.39,7.34a29.4,29.4,0,0,1,2.65,8.34,8.6,8.6,0,0,0,4,6.16,8.12,8.12,0,0,0,1.05.56A8.56,8.56,0,0,1,19.64,28.73Z"/><path class="cls-4" d="M23.34,32.8a8.57,8.57,0,0,1-4-6.16,29.29,29.29,0,0,0-2.65-8.34L14,12.5,10.78,11l3.39,7.34a29.4,29.4,0,0,1,2.65,8.34A8.58,8.58,0,0,0,26.72,34,8.43,8.43,0,0,1,23.34,32.8Z"/><path class="cls-5" d="M22.46,33a8.58,8.58,0,0,1-4-6.16,29.4,29.4,0,0,0-2.65-8.34l-3-6.56-2-.92,3.39,7.34a29.4,29.4,0,0,1,2.65,8.34,8.6,8.6,0,0,0,4,6.16,8.46,8.46,0,0,0,4.55,1.27A8.36,8.36,0,0,1,22.46,33Z"/><path class="cls-4" d="M29.82,18.27A11.33,11.33,0,0,1,12,24.19a11.33,11.33,0,0,0,19.34,7.45l.08-.09.33-.36a8.57,8.57,0,0,0-.37-11.72A8.05,8.05,0,0,0,29.82,18.27Z"/><path class="cls-4" d="M18,30.05A11.34,11.34,0,0,0,24,12.21a11.33,11.33,0,0,1,7.44,19.34l-.09.08c-.11.12-.24.22-.36.33a8.57,8.57,0,0,1-11.72-.36A9.2,9.2,0,0,1,18,30.05Z"/><path class="cls-1" d="M27.1,17.15l-1-.22V17A11.3,11.3,0,0,1,18,30.05a8.92,8.92,0,0,0,.73,1c.15.18.3.36.47.54h0c.21.21.44.41.68.61l.3.22.4.28A8.57,8.57,0,0,0,31,32l.1-.09.4-.37.13-.14a8.57,8.57,0,0,0-.22-11.89A8.43,8.43,0,0,0,27.1,17.15Z"/><path class="cls-5" d="M17,31.39a11.24,11.24,0,0,1-3.12-6A11.46,11.46,0,0,1,12,24.19a11.31,11.31,0,0,0,13.8,10.49A11.31,11.31,0,0,1,17,31.39Z"/><path class="cls-3" d="M31.67,17.2a11.27,11.27,0,0,1,3,5.48A11.31,11.31,0,0,0,24,12.21,12.34,12.34,0,0,1,25.09,14,11.24,11.24,0,0,1,31.67,17.2Z"/><path class="cls-4" d="M27.69,27.21l-1.3-.6.6,1.3a5.29,5.29,0,0,1,.46,1.46,1.54,1.54,0,0,0,.7,1.09,1.51,1.51,0,1,0,1.11-2.77A7.13,7.13,0,0,1,27.69,27.21Z"/><path class="cls-6" d="M31.41,15.51A11.29,11.29,0,0,0,24,12.21a11.22,11.22,0,0,1,2.14,4.72,38.62,38.62,0,0,1-7.94-2.52L10.78,11l3.39,7.34a29.89,29.89,0,0,1,2.59,8h0A11.27,11.27,0,0,1,12,24.19a11.33,11.33,0,0,0,19.34,7.45l0-.05,0,0,.05-.05.13-.14A11.34,11.34,0,0,0,31.41,15.51Z"/><path class="cls-5" d="M28.68,23a11.19,11.19,0,0,0,2.47-3.73,9,9,0,0,0-1.33-1,11.26,11.26,0,0,1-8.4,8A11.24,11.24,0,0,0,28.68,23Z"/><path class="cls-7" d="M26.93,23.24A12.42,12.42,0,0,1,22,26.77a9.78,9.78,0,0,1-6.36.34h0A1,1,0,0,1,15,25.85a1,1,0,0,1,1.26-.67l.16.06a8.17,8.17,0,0,0,5.35.57A12,12,0,0,0,26.93,23.24Z"/><path class="cls-7" d="M26.9,15.91a5.38,5.38,0,0,1,.18,2.37,7.62,7.62,0,0,1-.64,2.06,5,5,0,0,0-1.3-3.48,1.05,1.05,0,0,1,1.43-1.55,1,1,0,0,1,.29.46Z"/><circle class="cls-4" cx="9.91" cy="19.1" r="0.61"/><circle class="cls-4" cx="9.01" cy="21.3" r="0.23"/><circle class="cls-4" cx="12.77" cy="21.57" r="0.48"/><circle class="cls-4" cx="11.3" cy="21.06" r="0.21"/><circle class="cls-4" cx="11.89" cy="19" r="0.19"/><circle class="cls-4" cx="20.26" cy="11.65" r="0.53"/><circle class="cls-4" cx="17.63" cy="12.13" r="0.15"/><circle class="cls-4" cx="19.54" cy="13.13" r="0.22"/><circle class="cls-4" cx="20.83" cy="8.93" r="0.38"/><polygon class="cls-8" points="29.68 40.05 35.67 46.03 43.84 43.84 46.03 35.67 40.05 29.68 31.87 31.87 29.68 40.05"/><polygon class="cls-9" points="46.03 35.67 40.05 29.68 31.87 31.87 43.84 43.84 46.03 35.67"/><polygon class="cls-3" points="38.68 30.05 44.6 35.97 42.78 42.78 43.84 43.84 46.03 35.67 40.05 29.68 38.68 30.05"/><polygon class="cls-10" points="29.68 40.05 37.86 37.86 40.05 29.68 31.87 31.87 29.68 40.05"/><polygon class="cls-11" points="31.22 39.65 33.41 31.47 40.06 29.69 40.05 29.68 31.87 31.87 29.68 40.05 35.67 46.03 37.2 45.62 31.22 39.65"/><polygon class="cls-12" points="29.68 40.05 35.67 46.03 43.84 43.84 46.03 35.67 40.05 29.68 31.87 31.87 29.68 40.05"/><path class="cls-12" d="M50.35,50.35l-6.51-6.51Z"/><polyline class="cls-12" points="47.23 49.82 47.23 47.23 49.82 47.23"/><polyline class="cls-12" points="44.43 48.06 44.43 44.43 48.06 44.43"/><path class="cls-12" d="M20.79,42.43l8.89-2.38Z"/><polyline class="cls-12" points="22.82 39.99 25.06 41.29 23.77 43.53"/><polyline class="cls-12" points="25.74 38.45 28.88 40.26 27.07 43.41"/><path class="cls-12" d="M54.93,33.28,46,35.67Z"/><polyline class="cls-12" points="52.9 35.72 50.66 34.43 51.95 32.19"/><polyline class="cls-12" points="49.98 37.27 46.84 35.45 48.65 32.31"/><path class="cls-12" d="M33.28,54.93,35.67,46Z"/><polyline class="cls-12" points="32.19 51.95 34.43 50.66 35.72 52.9"/><polyline class="cls-12" points="32.31 48.65 35.45 46.84 37.27 49.98"/><path class="cls-12" d="M42.43,20.79l-2.38,8.89Z"/><polyline class="cls-12" points="43.53 23.77 41.29 25.06 39.99 22.82"/><polyline class="cls-12" points="43.41 27.07 40.26 28.88 38.45 25.74"/><polygon class="cls-8" points="40.63 52.51 39.99 51.87 39.12 52.1 38.88 52.98 39.52 53.62 40.4 53.38 40.63 52.51"/><polygon class="cls-8" points="42.13 48.48 41.49 47.84 40.61 48.07 40.38 48.95 41.02 49.59 41.89 49.35 42.13 48.48"/><polygon class="cls-8" points="43.34 51.98 43.02 51.66 42.58 51.78 42.46 52.22 42.78 52.54 43.22 52.42 43.34 51.98"/><polygon class="cls-8" points="26.28 47.26 26.54 46.39 25.92 45.73 25.04 45.94 24.78 46.81 25.4 47.47 26.28 47.26"/><polygon class="cls-8" points="30.54 46.66 30.8 45.79 30.18 45.13 29.29 45.34 29.03 46.21 29.66 46.87 30.54 46.66"/><polygon class="cls-8" points="28.03 49.39 28.16 48.96 27.85 48.63 27.41 48.73 27.27 49.16 27.59 49.49 28.03 49.39"/><polygon class="cls-8" points="49.44 28.46 49.17 29.33 49.8 29.99 50.68 29.78 50.94 28.91 50.32 28.25 49.44 28.46"/><polygon class="cls-8" points="45.18 29.06 44.92 29.93 45.54 30.59 46.42 30.38 46.68 29.51 46.06 28.85 45.18 29.06"/><polygon class="cls-8" points="47.69 26.33 47.56 26.76 47.87 27.09 48.31 26.99 48.44 26.55 48.13 26.22 47.69 26.33"/><polygon class="cls-8" points="52.51 40.63 51.87 39.99 52.1 39.12 52.98 38.88 53.62 39.52 53.38 40.4 52.51 40.63"/><polygon class="cls-8" points="48.48 42.13 47.84 41.49 48.07 40.61 48.95 40.38 49.59 41.02 49.35 41.89 48.48 42.13"/><polygon class="cls-8" points="51.98 43.34 51.66 43.02 51.78 42.58 52.22 42.46 52.54 42.78 52.42 43.22 51.98 43.34"/><circle class="cls-4" cx="10.04" cy="32.16" r="0.74"/><circle class="cls-4" cx="13.32" cy="36.22" r="0.55"/><circle class="cls-4" cx="13.04" cy="33.56" r="0.27"/><circle class="cls-4" cx="10.57" cy="36.2" r="0.53"/><circle class="cls-4" cx="16.9" cy="36.6" r="0.88"/><circle class="cls-4" cx="16.46" cy="39.86" r="0.44"/><circle class="cls-4" cx="20.56" cy="37.56" r="0.3"/><circle class="cls-4" cx="30.19" cy="10.02" r="0.27"/><circle class="cls-4" cx="34.77" cy="12.02" r="0.89"/><circle class="cls-4" cx="32.09" cy="11.87" r="0.22"/><circle class="cls-4" cx="37.39" cy="10.76" r="0.47"/><circle class="cls-4" cx="37.03" cy="15.78" r="0.61"/><circle class="cls-4" cx="40.65" cy="14.67" r="0.59"/><circle class="cls-4" cx="34.31" cy="15.1" r="0.42"/><circle class="cls-4" cx="38.08" cy="19.26" r="0.45"/><circle class="cls-4" cx="37.17" cy="21.04" r="0.25"/><circle class="cls-4" cx="11.83" cy="41.03" r="0.73"/><circle class="cls-4" cx="15.77" cy="43.59" r="0.69"/><circle class="cls-4" cx="14.19" cy="39.24" r="0.33"/><circle class="cls-4" cx="43.7" cy="17.73" r="0.8"/><circle class="cls-8" cx="21.44" cy="47.87" r="0.65"/><circle class="cls-8" cx="19.2" cy="46.91" r="0.32"/><circle class="cls-8" cx="47.62" cy="23.35" r="0.79"/><circle class="cls-8" cx="47.38" cy="20.25" r="0.54"/></svg>